PathFileType	4	(X/Y/Z)	 subject01_standing_10_70.trc
DataRate	CameraRate	NumFrames	NumMarkers	Units	OrigDataRate	OrigDataStartFrame	OrigNumFrames
2000	100	4	49	mm	2000	626	1000
Frame#	Time	s2			lmt5			lcal			ltoe			llmal			lsh1			lsh2			lsh3			lsh4			llfc			lth1			lth2			lth3			lth4			lgt			lic			lasi			lpsi			rpsi			ric			rasi			rgt			rth1			rth2			rth3			rth4			rlfc			rsh1			rsh2			rsh4			rlmal			rcal			rmt5			rtoe			jug			c7			lacr			lua			llel			lfa			ldr			racr			rua			rlel			rfa			rdr			B3			B2			B1			
		X1	Y1	Z1	X2	Y2	Z2	X3	Y3	Z3	X4	Y4	Z4	X5	Y5	Z5	X6	Y6	Z6	X7	Y7	Z7	X8	Y8	Z8	X9	Y9	Z9	X10	Y10	Z10	X11	Y11	Z11	X12	Y12	Z12	X13	Y13	Z13	X14	Y14	Z14	X15	Y15	Z15	X16	Y16	Z16	X17	Y17	Z17	X18	Y18	Z18	X19	Y19	Z19	X20	Y20	Z20	X21	Y21	Z21	X22	Y22	Z22	X23	Y23	Z23	X24	Y24	Z24	X25	Y25	Z25	X26	Y26	Z26	X27	Y27	Z27	X28	Y28	Z28	X29	Y29	Z29	X30	Y30	Z30	X31	Y31	Z31	X32	Y32	Z32	X33	Y33	Z33	X34	Y34	Z34	X35	Y35	Z35	X36	Y36	Z36	X37	Y37	Z37	X38	Y38	Z38	X39	Y39	Z39	X40	Y40	Z40	X41	Y41	Z41	X42	Y42	Z42	X43	Y43	Z43	X44	Y44	Z44	X45	Y45	Z45	X46	Y46	Z46	X47	Y47	Z47	X48	Y48	Z48	X49	Y49	Z49	
626	6.2600	320.581848	1195.397949	-159.167816	371.739960	465.223480	-404.449432	281.890839	638.819214	-333.456940	451.584534	391.223785	-336.589966	345.694061	595.489563	-379.488281	633.459412	740.982605	-389.205353	564.677551	687.557739	-381.704987	473.865021	673.896423	-381.482880	577.524658	659.933228	-356.861389	721.073120	794.977539	-367.144226	509.237244	985.390015	-368.045593	584.458069	942.244202	-375.661011	634.677795	865.735535	-373.647003	611.861145	968.746338	-367.985138	415.273743	1095.440674	-352.406494	429.307220	1176.528564	-328.539032	504.057587	1136.865234	-271.825043	338.782227	1225.982300	-205.903885	352.913727	1226.064209	-103.714005	448.021759	1164.154785	-1.704406	509.954987	1125.572021	-59.386646	393.842133	1062.652344	14.267697	420.645935	910.830505	15.478951	438.034912	823.659180	2.913877	413.583344	740.039001	-12.663196	473.790283	822.677551	-12.381116	399.934174	624.617126	-30.393972	345.234680	519.988342	-19.187656	321.662476	434.718445	-36.311035	348.390930	424.304871	-65.116577	206.282364	250.800934	-56.629311	132.810715	261.534515	-104.223473	270.480774	133.291260	-28.214367	375.303925	84.356842	-90.141899	831.682922	1320.923584	-216.427200	842.238281	1476.177979	-207.331924	860.937622	1475.241211	-332.035950	789.004395	1335.334961	-428.141998	726.957825	1187.024902	-463.983887	792.871643	1069.947754	-426.754700	822.374023	950.159180	-393.178009	884.296082	1451.385620	-80.364922	792.317017	1319.374878	18.154036	705.365723	1175.906006	44.352707	783.595154	1060.434082	11.277085	820.915100	950.526794	-30.694439	25.835932	22.941975	45.950794	19.568096	30.906967	-474.294922	-194.822266	887.551147	-210.329773	
627	6.2700	320.896301	1198.242188	-159.797165	383.021423	462.440186	-404.480743	287.617798	633.162109	-333.504730	465.188202	391.049683	-336.665985	352.860077	591.869812	-379.346130	637.253540	744.298096	-387.698578	569.812866	689.469543	-380.556854	479.329712	673.448120	-380.789917	583.209900	661.611816	-356.079529	723.905823	799.697021	-365.504883	511.091064	989.313232	-367.884521	586.692505	946.738403	-374.873291	637.372070	870.520081	-372.887024	614.020569	973.329956	-366.654388	416.159760	1098.817017	-352.898590	430.010773	1179.524658	-328.801483	504.374969	1139.612915	-271.843658	339.180573	1228.761963	-206.441757	353.157684	1228.902832	-104.130379	447.943451	1166.439331	-2.039457	509.799774	1127.868042	-59.695492	393.062042	1065.040405	13.636034	418.025452	913.170776	14.872020	434.242920	825.590942	3.057779	408.513763	742.268677	-12.452282	469.993011	824.211548	-12.337787	393.502533	627.274719	-30.239330	337.790192	523.245544	-19.040712	313.344238	438.251434	-36.041504	340.065826	427.489929	-64.776634	196.209442	255.445847	-56.757912	123.239975	267.325867	-104.417122	258.582458	136.928680	-28.054531	362.699219	86.346779	-89.835342	832.114075	1322.243896	-216.925720	842.749939	1477.414795	-207.790527	861.670349	1476.105957	-332.646881	789.914307	1335.961426	-428.370056	728.043945	1187.387939	-463.770996	793.648865	1070.166504	-426.690796	822.675110	950.237305	-393.210632	884.914368	1452.228638	-80.743683	793.240601	1320.064331	17.596342	706.440613	1176.562744	43.544960	784.357971	1060.746338	10.732728	821.136047	950.539795	-30.806398	25.836632	22.977623	45.947887	19.577135	30.915392	-474.314087	-194.823990	887.572083	-210.357956	
628	6.2800	321.042450	1201.577759	-160.366394	394.106323	458.975006	-404.392548	293.049316	626.239136	-333.566315	478.505890	390.081146	-336.502930	359.773926	587.036316	-379.171997	640.300293	747.010864	-386.245148	574.303101	690.405334	-379.562958	484.163727	672.282227	-380.076019	588.431763	662.734741	-355.397217	725.913269	803.997559	-363.910004	512.418701	993.390747	-367.786835	588.302856	951.035034	-374.233246	639.305237	875.108032	-372.236542	615.658752	977.853210	-365.552460	416.834076	1102.448853	-353.433258	430.564331	1183.023071	-329.209290	504.597931	1142.623413	-272.058655	339.531891	1232.044067	-207.133102	353.216888	1231.974121	-104.729103	447.701874	1169.052856	-2.485929	509.496277	1130.527466	-60.159927	392.162994	1067.805298	13.144523	415.859436	915.868652	14.296424	431.214722	828.023865	2.935678	404.493073	744.982117	-12.461280	466.876007	826.196411	-12.472545	388.283630	630.432556	-30.205877	331.326385	527.147034	-18.837311	305.963226	442.316681	-35.890602	332.504272	431.184509	-64.575996	186.590439	261.116791	-56.828369	114.103706	274.268921	-104.647598	247.038986	141.313873	-28.013691	350.439453	89.059898	-89.636543	832.712708	1323.605225	-217.259048	843.446899	1478.713013	-208.242828	862.541870	1476.997070	-333.412201	790.960449	1336.674194	-428.580383	729.193298	1187.839600	-463.438232	794.477844	1070.424072	-426.458710	822.996277	950.310974	-393.185120	885.735352	1453.042480	-80.848099	794.211060	1320.694824	17.057186	707.401917	1177.119019	42.653877	785.016174	1061.049194	10.233988	821.371643	950.539856	-30.893955	25.829863	22.988413	45.943684	19.547192	30.961336	-474.285522	-194.832947	887.604004	-210.363602	
629	6.2900	321.102570	1205.025757	-161.356812	404.643127	454.294373	-404.388123	298.231110	618.265198	-333.520111	491.203461	388.274323	-336.430756	366.292389	581.257202	-378.995239	642.636841	749.114258	-384.894531	578.184692	690.740967	-378.748566	488.584656	670.092834	-379.377930	592.933350	663.224854	-354.760162	727.017761	807.580444	-362.336884	513.234497	997.268555	-367.904114	589.226929	955.097351	-373.693237	640.447388	879.402527	-371.608368	616.525146	981.853027	-364.762909	417.335114	1105.941284	-354.040375	430.957001	1186.492554	-329.670441	504.691986	1145.871094	-272.332123	339.801422	1235.548462	-207.986771	353.120972	1235.136597	-105.750740	447.373352	1172.184204	-3.067723	509.054718	1133.445435	-60.660389	391.377777	1070.995605	12.661460	414.045654	918.680115	13.583704	428.882294	830.663452	2.655171	401.479401	747.897583	-12.550500	464.454773	828.561279	-12.961190	384.498657	633.837341	-30.406443	326.022278	531.464966	-18.789873	299.546967	446.889282	-35.812943	325.926666	435.489441	-64.299500	177.366074	267.864319	-56.860397	105.446098	281.907501	-104.885162	235.843475	146.588181	-27.931581	338.445557	92.740059	-89.354660	833.338074	1324.988281	-217.630951	844.249817	1479.917236	-208.529449	863.513184	1477.849365	-334.086334	792.065735	1337.312012	-428.719116	730.453918	1188.414551	-463.010468	795.333069	1070.632812	-426.137878	823.263794	950.430481	-393.016296	886.553650	1453.644653	-80.773010	795.138184	1321.205811	16.580730	708.197388	1177.670044	41.869175	785.576599	1061.306885	9.765825	821.635376	950.581543	-31.005917	25.826962	23.013039	45.935696	19.560516	30.957136	-474.314880	-194.787460	887.663208	-210.376526	
